<mxfile host="65bd71144e">
    <diagram id="Omz8NuV_Lej0NusEcTPA" name="Page-1">
        <mxGraphModel dx="1099" dy="741" grid="1" gridSize="10" guides="1" tooltips="1" connect="1" arrows="1" fold="1" page="1" pageScale="1" pageWidth="827" pageHeight="1169" math="0" shadow="0">
            <root>
                <mxCell id="0"/>
                <mxCell id="1" parent="0"/>
                <mxCell id="2" value="" style="pointerEvents=1;verticalLabelPosition=bottom;shadow=0;dashed=0;align=center;html=1;verticalAlign=top;shape=mxgraph.electrical.miscellaneous.batteryStack;direction=north;" parent="1" vertex="1">
                    <mxGeometry x="605" y="190" width="60" height="100" as="geometry"/>
                </mxCell>
                <mxCell id="106" style="edgeStyle=none;shape=connector;rounded=1;html=1;exitX=1;exitY=0.5;exitDx=0;exitDy=0;exitPerimeter=0;labelBackgroundColor=default;fontFamily=Helvetica;fontSize=11;fontColor=default;endArrow=none;endFill=0;strokeColor=default;entryX=0;entryY=0.57;entryDx=0;entryDy=0;entryPerimeter=0;" parent="1" source="3" target="4" edge="1">
                    <mxGeometry relative="1" as="geometry">
                        <mxPoint x="110" y="210" as="targetPoint"/>
                        <Array as="points">
                            <mxPoint x="110" y="200"/>
                        </Array>
                    </mxGeometry>
                </mxCell>
                <mxCell id="3" value="" style="pointerEvents=1;verticalLabelPosition=bottom;shadow=0;dashed=0;align=center;html=1;verticalAlign=top;shape=mxgraph.electrical.resistors.resistor_2;direction=west;" parent="1" vertex="1">
                    <mxGeometry x="170" y="190" width="96" height="20" as="geometry"/>
                </mxCell>
                <mxCell id="187" style="edgeStyle=none;html=1;exitX=1;exitY=0.57;exitDx=0;exitDy=0;exitPerimeter=0;entryX=0;entryY=0.5;entryDx=0;entryDy=0;endArrow=none;endFill=0;strokeColor=#000000;" parent="1" source="4" target="2" edge="1">
                    <mxGeometry relative="1" as="geometry">
                        <Array as="points">
                            <mxPoint x="635" y="350"/>
                        </Array>
                    </mxGeometry>
                </mxCell>
                <mxCell id="4" value="" style="verticalLabelPosition=bottom;shadow=0;dashed=0;align=center;html=1;verticalAlign=top;shape=mxgraph.electrical.opto_electronics.led_2;pointerEvents=1;direction=south;flipV=0;flipH=0;" parent="1" vertex="1">
                    <mxGeometry x="80" y="250" width="70" height="100" as="geometry"/>
                </mxCell>
                <mxCell id="8" value="5 V" style="text;html=1;align=center;verticalAlign=middle;resizable=0;points=[];autosize=1;strokeColor=none;fillColor=none;fontSize=11;fontFamily=Helvetica;fontColor=default;" parent="1" vertex="1">
                    <mxGeometry x="660" y="230" width="30" height="20" as="geometry"/>
                </mxCell>
                <mxCell id="9" value="220&amp;nbsp;&amp;nbsp;Î©" style="text;html=1;align=center;verticalAlign=middle;resizable=0;points=[];autosize=1;strokeColor=none;fillColor=none;fontSize=11;fontFamily=Helvetica;fontColor=default;" parent="1" vertex="1">
                    <mxGeometry x="210" y="167" width="50" height="20" as="geometry"/>
                </mxCell>
                <mxCell id="10" value="Output" style="text;html=1;align=center;verticalAlign=middle;resizable=0;points=[];autosize=1;strokeColor=none;fillColor=none;fontSize=11;fontFamily=Helvetica;fontColor=default;" parent="1" vertex="1">
                    <mxGeometry x="30" y="310" width="50" height="20" as="geometry"/>
                </mxCell>
                <mxCell id="11" value="&lt;font&gt;&lt;span style=&quot;font-size: 14px&quot;&gt;Nina Mathew&lt;/span&gt;&lt;br&gt;&lt;span style=&quot;font-size: 14px&quot;&gt;TEJ3M Unit #4-16&lt;/span&gt;&lt;br&gt;&lt;div&gt;&lt;span style=&quot;font-size: 14px&quot;&gt;XOR circuit with an IC chip&lt;/span&gt;&lt;/div&gt;&lt;div style=&quot;font-size: 14px&quot;&gt;&lt;br&gt;&lt;/div&gt;&lt;/font&gt;" style="text;html=1;align=center;verticalAlign=middle;resizable=0;points=[];autosize=1;strokeColor=none;fillColor=none;fontSize=11;fontFamily=Helvetica;fontColor=default;" parent="1" vertex="1">
                    <mxGeometry x="50" y="100" width="180" height="60" as="geometry"/>
                </mxCell>
                <mxCell id="182" style="edgeStyle=none;html=1;exitX=0;exitY=0.885;exitDx=0;exitDy=0;exitPerimeter=0;entryX=0;entryY=0.75;entryDx=0;entryDy=0;entryPerimeter=0;endArrow=none;endFill=0;" parent="1" source="12" target="189" edge="1">
                    <mxGeometry relative="1" as="geometry">
                        <mxPoint x="460" y="185" as="targetPoint"/>
                    </mxGeometry>
                </mxCell>
                <mxCell id="184" style="edgeStyle=none;html=1;exitX=1;exitY=0.885;exitDx=0;exitDy=0;exitPerimeter=0;entryX=1;entryY=0.885;entryDx=0;entryDy=0;entryPerimeter=0;endArrow=none;endFill=0;" parent="1" source="12" target="134" edge="1">
                    <mxGeometry relative="1" as="geometry">
                        <Array as="points">
                            <mxPoint x="580" y="210"/>
                            <mxPoint x="580" y="277"/>
                        </Array>
                    </mxGeometry>
                </mxCell>
                <mxCell id="185" style="edgeStyle=none;html=1;exitX=1;exitY=0.115;exitDx=0;exitDy=0;exitPerimeter=0;entryX=1;entryY=0.5;entryDx=0;entryDy=0;endArrow=none;endFill=0;strokeColor=#CC0000;" parent="1" source="12" target="2" edge="1">
                    <mxGeometry relative="1" as="geometry">
                        <Array as="points">
                            <mxPoint x="570" y="130"/>
                            <mxPoint x="635" y="130"/>
                        </Array>
                    </mxGeometry>
                </mxCell>
                <mxCell id="12" value="" style="pointerEvents=1;verticalLabelPosition=bottom;shadow=0;dashed=0;align=center;html=1;verticalAlign=top;shape=mxgraph.electrical.electro-mechanical.2-way_switch;direction=east;" parent="1" vertex="1">
                    <mxGeometry x="497.5" y="167" width="75" height="26" as="geometry"/>
                </mxCell>
                <mxCell id="13" value="+" style="text;html=1;align=center;verticalAlign=middle;resizable=0;points=[];autosize=1;strokeColor=none;fillColor=none;" parent="1" vertex="1">
                    <mxGeometry x="645" y="170" width="20" height="20" as="geometry"/>
                </mxCell>
                <mxCell id="14" value="-" style="text;html=1;align=center;verticalAlign=middle;resizable=0;points=[];autosize=1;strokeColor=none;fillColor=none;" parent="1" vertex="1">
                    <mxGeometry x="645" y="280" width="20" height="20" as="geometry"/>
                </mxCell>
                <mxCell id="43" value="Input A" style="text;html=1;align=center;verticalAlign=middle;resizable=0;points=[];autosize=1;strokeColor=none;fillColor=none;fontSize=11;fontFamily=Helvetica;fontColor=default;" parent="1" vertex="1">
                    <mxGeometry x="490" y="150" width="50" height="20" as="geometry"/>
                </mxCell>
                <mxCell id="183" style="edgeStyle=none;html=1;exitX=0;exitY=0.885;exitDx=0;exitDy=0;exitPerimeter=0;entryX=0;entryY=0.25;entryDx=0;entryDy=0;entryPerimeter=0;endArrow=none;endFill=0;" parent="1" source="134" target="189" edge="1">
                    <mxGeometry relative="1" as="geometry">
                        <mxPoint x="460" y="215" as="targetPoint"/>
                    </mxGeometry>
                </mxCell>
                <mxCell id="186" style="edgeStyle=none;html=1;exitX=1;exitY=0.115;exitDx=0;exitDy=0;exitPerimeter=0;endArrow=none;endFill=0;strokeColor=#CC0000;" parent="1" source="134" edge="1">
                    <mxGeometry relative="1" as="geometry">
                        <mxPoint x="600" y="130" as="targetPoint"/>
                        <Array as="points">
                            <mxPoint x="600" y="257"/>
                        </Array>
                    </mxGeometry>
                </mxCell>
                <mxCell id="188" style="edgeStyle=none;html=1;exitX=1;exitY=0.885;exitDx=0;exitDy=0;exitPerimeter=0;endArrow=none;endFill=0;strokeColor=#000000;" parent="1" source="134" edge="1">
                    <mxGeometry relative="1" as="geometry">
                        <mxPoint x="560" y="350" as="targetPoint"/>
                    </mxGeometry>
                </mxCell>
                <mxCell id="134" value="" style="pointerEvents=1;verticalLabelPosition=bottom;shadow=0;dashed=0;align=center;html=1;verticalAlign=top;shape=mxgraph.electrical.electro-mechanical.2-way_switch;direction=east;" parent="1" vertex="1">
                    <mxGeometry x="485" y="254" width="75" height="26" as="geometry"/>
                </mxCell>
                <mxCell id="177" value="Input B" style="text;html=1;align=center;verticalAlign=middle;resizable=0;points=[];autosize=1;strokeColor=none;fillColor=none;fontSize=11;fontFamily=Helvetica;fontColor=default;" parent="1" vertex="1">
                    <mxGeometry x="497.5" y="234" width="50" height="20" as="geometry"/>
                </mxCell>
                <mxCell id="180" style="edgeStyle=none;html=1;exitX=1;exitY=0.5;exitDx=0;exitDy=0;exitPerimeter=0;entryX=0;entryY=0.5;entryDx=0;entryDy=0;entryPerimeter=0;endArrow=none;endFill=0;" parent="1" source="189" target="3" edge="1">
                    <mxGeometry relative="1" as="geometry">
                        <mxPoint x="360" y="200" as="sourcePoint"/>
                    </mxGeometry>
                </mxCell>
                <mxCell id="189" value="" style="verticalLabelPosition=bottom;shadow=0;dashed=0;align=center;html=1;verticalAlign=top;shape=mxgraph.electrical.logic_gates.logic_gate;operation=xor;direction=west;" vertex="1" parent="1">
                    <mxGeometry x="350" y="170" width="100" height="60" as="geometry"/>
                </mxCell>
                <mxCell id="190" value="" style="shape=image;verticalLabelPosition=bottom;labelBackgroundColor=#ffffff;verticalAlign=top;aspect=fixed;imageAspect=0;image=data:image/png,iVBORw0KGgoAAAANSUhEUgAAAYMAAADxCAIAAACmm0w7AAAgAElEQVR4nO3deXBU150v8Lv07U29aOlF+9JCGLSBEIuQkCxA2EBsDCZ4HOKJY3uqEttTM5nMpCpJZeZl3sSuqclMnjMkgzO2Q0LM2CwOGNlCCNDCIgES2iXQLnW3tpbU+3rX98etpycL2ZhE1mmJ3+cvdNVq/bit/va555x7Di4IAgYAAEgRqAsAAABIIgBAGIAkAgCgB0kEAEAPkggAgB4kEQAAPUgiAAB6kEQAAPQgiQAA6EESAQDQgyQCAKAHSQQAQA+SCACAngR1AeBPNzMzc/369cbGxldeeSUxMZGiKAzDBEGYnJw8depUZGTk008/HRUVJQjC4NDgtavX2tvb+/v7DQbDqlWrSktLs7OzVSoVhmGhUKixsbGurs7n84nPTBCERqPJzc1dv369TqeTSD7376R/oL++vr6tta2vr08qlaanp+/YsSM/P1+n0z2wfo7jAoEARVEymWyRTglYrsif/vSnqGsAfyKe56enp48cOcIwzKpVq7RaLYZhU1NTFy5ceO+995588kmTyYTjeG1d7R+O/6GpqUmv1ycnJysUipGRkRs3brjd7vj4eLVaHQqFamtr33//fYVCIWYTz/MOh+PGjRsVFRVR0VE6vU4uk8/77RzH1dXVHf/98cbGRp1Ol5SUZDAYpqamrl696vF44uLiIiMjv7j+iYmJ//zP/wwGg2lpaSRJfkVnCSwL0CZaxpRK5Zo1a4q2FX3yySdZWVlarVYmk7W2tp47dy49PX3Dhg0KhaKjo+P8x+fNZnNpaWlhYaFer/d6vf39/Z988klVVZVUKv3Lv/xLQRC8Xu/09PSGDRu2bNmCYRjP816vt6ur6+c//3l8fHxSYpJWo53323t7e8+ePWs2m4uLi7dt22YwGDiOGxwcPH36dHV1tVqtfvHFF784X9xud3V1tUajKSsrExt04JEFSbSMEQSh0+tee+211ztfv3jxYkJCQkRERHV1td1u/9nPfmY0GgVBqKysHBwcLC0tffnllzUajfiD2dnZ0dHRv/71rysrK4uLi2NjYzEMk0gka9euFZNIVFhYWFFRMTQ05HA45v1qnucrKyv7+voef/zxl19+OSoqSjy+atUqpVJ5/Phxi8USCARUKhXP8wMDAyMjIy6XC8fxmJgYk8kUFxdnNpsbGxudTmdvb+/t27fT09MTEhI4jhsaGjKbzT6fLyIiIjk5OTk5WSqVLsnpBChBEi1vUkqalZn1wgsv/Pa3v71w4QKGYa2trV/72teKi4txHLfZbNevX4+Jidm+fftsDGEYhuP4li1bbty4cenSpYabDQf2H7j/mQVBoGk6OjpaoVBQ0vkNlkAgcOXKFb1eX1xcPBtDory8PIZhaJqmaZpl2dHR0d/97ne9vb1Op1MQBJ1OV1RUdPjw4fb29srKSpvN1tTUFB0d/cQTT+h0uqGhoTNnzvT19bndbqVSuW7dul27dq1bt44gYGhlhYMkWgm++c1vNjQ0nDx50ufzFZcUv/TySziOYxhmHbV6vJ4NGzaYTKZ5PyKXy9PT01taWgYHB8UjgiC4XK7p6Wnx36FQqLe3t6ur68UXXzQajPN+3Gaz2e32vLy8tLQ08fEcx3m9XvG7eXl5JEnK5XK32/3RRx+dPn36u9/9bmFhodfrPX369LFjx4qKijIzM8vKytra2vLy8nbt2mUymcbHx//jP/5jaGjolVdeSTOltTS3XLx4sbu7+5e//KXYBQZWMEiilUChUOzfv7+3t1ej0Tz5xJN6nV48bpu0BQNBlUqlVqvv/ymNRkNR1PjYuPil3+9/44033n77bQzDWJadmZkxm83/+I//+MILLxiN85NofGI8GAxqtVqxh5um6YGBgd/85jc0TYsPSE9PLysrS05OJgjiRz/60Z49e4xGI8/zY2NjN2/eHBsb27NnD8dxUVFRa9asKSgoEAShrq7u1KlTly5dysnJkcvlG/I2REREnDhxor6+fs+ePV/RqQNhApJoJfD7/efPn5+cnPT5fJcuXdq9e7eYHRqthqKoUCgUDAbFyJgrEAhwHDc7wkWSZEFBwZo1azAM4zhuamqqpqbmf/7nfwq2FkRFRc0baFfIFSRJhkIhMXpwHKcoKjIykmEYDMOam5ttNltWVlZOTs63vvUtu91+7969ysrKu3fvXrt2jWEYnudxHBcbbjiOEwThdDoHBwdpmj516tSFCxfEb/X09Lhcrra2NkiiFQ+SaCU4efJkT0/P17/+9RAdar7T/Pvjv/+Hf/gHAifi4uKUSuXk5OTExMSqVavm/gjP8+Pj4w6Ho7i4WDwilUqLi4sff/xxDMMEQQgGg48//vhf/dVf3Wy4mZqSmpiYOPfH4+Li5HL5xMTE1NSUOOEoISFBHIbDMMzpdA4MDLAsKybj6dOnTSZTfHz8mjVrQqFQQ0PD/f8FlmX9fj9JkhRFzfYKpaSkpKSkpKenfxUnDYQVSKLljWGY/v7+999/Pysra9++fTiOBwPB8vPlBQUFhVsLjQZjVlaW2WxuamoymUxz+30HBgc6OzspKbVp0ybxCEEQer0+ISFB/FLsXU5KSrJarS6Xa14SRUdH5+XljYyMtLS0rF69miRJpVIpht3IyEggEBAbPlNTU0eOHFmbmVlYWGgymbSRWoZh6uvr7/+PyGSyqKgogiCKi4uNRqM4/D89PT09PS12RYGVDYYkljFxZuM777wTCoV2796dmZmZnZ29c+dOiUTym7d/MzExIZVKn3jiCZlMVlFRUV1dPTMzI/Yr371798MPP7RYLJs2bcrMzFzwyXEcl8lkaWlpPp8vGAzO+65UKn3q6acoiqqsrLx8+fL09DTHccFgsL+//9SpU+3t7TiOi9OUbt++vXbt2q1bt65du5am6eGRYb/fz7IshmEkSeI47vV6XS6XTCbLyMiIjY0dHx+PjY3NzMyMj4+32+19fX0Gg+ErP5UANWgTLWNut/vGjRunT5/+m7/5m40bN4rj9Js2bdq7d+9bb71VUVFx8ODBrVu3WiyWixcvHj9+/O7du7GxsW63u7+/v7Ozc83atfue3qdWq2fHvObBcdxgMAwODrrdbkEQxL6bWYVbC4cGh6qqqt5///2enp7Y2NhQKDQ0NNTb2xsREREbG4vjuEKhyM7OvtPUpFGrVWrVxMTEyPCITCZrutO0Y+cOZYQyJibm7t27VVVVmzZtWr169TPPPHPx4kWXy2U0Gt1ud1dXl0QiiY6OXoqzCZCCuz2WsfHx8U8//ZQgiB/84AcJCQliUqjVar1ePzAwYDabCwsLxfaFwWDo6uq6ePHilStXbt++7fV6937ta988fFhsELEsa7FYJicny8rK5l6FiUNdIyMjGzZsSE1NnTepRyqVZmdn6/X6np6eysrKK9VXGhoaPB7P4cOHxSnXCQkJGRkZMTEx1dXVdXV1N2/eVKvUmzZtUigUd5rulJWVGQ1Gu93e2dlptVoNBkN+fn5ubu7Q0FBVVVV1dfX4+HhOTs5zzz2XlJS0xCcWLD0cdqN+RIid0FarNSYmRqPRfMFNrX/CM/sDgYmJcY1GExUZdf8zB4NBt8etilApFAocxxmG8Xg8X9DSoWk6GAxKpVK5fP7NbmClgiR6hAiCwPM8QRDzrrMW65nF8fgFvyte3M3+3vuv9e7/EQzDFr1OELYgiQAA6MHYGQAAPUgiAAB6kEQAAPQgiQAA6EESAQDQgyQCAKAHSQQAQA+SCACAHiQRAAC9BW4+6uzsXPo6AAArSXZ29kM9foEk8ng8i1TMo87lctE0rdfrURcCPhfP81arNTY2FvYyQmuBJNq6devS17EidXd3OxwOOJ/hjGGYycnJnJwcWAUJLegnAgCgB0kEAEAPkggAgB4kEQAAPUgiAAB6kEQAAPQgiQAA6EESAQDQC4udFzmO4zhOEASCIEiSXHB/CIAKy7I8z8/beUHcqANerCXD8zzHceIGKiRJirt1/wkEQRDfbnMPinuooH1B0ScRy7KdnZ137tzxer2JiYnr169PT09HXRT4/2pqagYHB+dtSC2Xy2NiYrKzs1NTU2FXsiUwNDTU3Nw8Njam1WrXrVuXl5f3pz2Py+Vqa2trbW2dexDHcaVSGRsbm5GR8dhjjy1GvQ8NfRKFQqF33323urra7XYnJiZ++9vfhiQKK5cuX7pYeXFmZmbuQYIgJBKJSqXat2/fSy+9BC/ZV62iouLDDz8cGRnRarU7duw4cuTIn/Y8Tqezpqbm3XffnXtQ3KiOoiiDwVBWVvbDH/5Q3CNzMQr/shAnEcuyExMTVVVVw8PDDMPY7faWlhabzWYwGNAWBmY5nc7x8fGpqanExMSsrCwMwwRBGBsbGxwaHB4eZllWr9f/7d/+LeoyVzKH09HQ0NDa2ur3+202m0KhsFgs8fHxX3CNxvM8hmH3X2pxHOdyuUZHRymKMplMiYmJEomEZmiL2WI2my0Wi9PpLC0tLSgoUCqVX+3/6rMQJ5HX67158+bY2BjHcSRJhkKh/v7+9vb2srIytIWBeQiCWLdunZg4giDYHfbjx4831DcMDg62trayLLuI21uDeVpbWwcGBwKBAEmSPM9PTExcvXr12WefVSgUcx8mCALLsg0NDT09PYFAQLzmSktL27Jli1KpnNfGUSqVZWVlTzzxhEKhYFl2cHCwoqKioqLCarW2trauX7/+0Uoih8NRXl7OMExKSopSqZycnBwcHLx+/fqOHTugKzSs4DielJS0a9eu2SMd7R1dnV3BYBD2jP5KCYJw+dLl8bFxg8EQExPj8/nsdvvHH3+8e/fuuUnE87zT6bxy5crQ0JDX63U4HBRF6fV6t9s9Nja2Y8cOg8Ew99NCKpVmZmZu375drVZjGDY2Nma32ysqKjBEm4CjTCKapkdHR2tqahiGKS0tjYuLq66uvnPnTmNjo91u1+l0CGsD8wiC4PV6rVarOIjm8XisVmswGExLS8vJyYEG0VeE53mXy3Xt2jWbzVZcXLx58+aBgYHTp0/X1taOjY1pNBqKosRHut3uhoaGTz/9dNeuXUVFRc3NzUqlcvPmzbdv3z5z5gzDMPv27YuJiZl9Zo7jHA7H6OioSqViWXZgcMBsNlMUFR8fn5ubu/SjECj/gGZ7hQiC2LZt2+rVq4eHh2/dujU6Onr79u29e/cirA3Mw/P8vXv3jh07NvvvK1eu+P3+Z555Zs+ePairW7FYlm1sbLRYLDRNZ2Zm7tmzp6Gh4fTp0y6X68aNG3FxceIHNs/zIyMjp0+ffv3113NycuRy+bvvvhsREbF79+6dO3eaTKbvf//769at02g0s88cDAbr6+sDgYBMJvP5fO3t7U1NTVFRUbt37960adO8674lgDKJrFZrdXU1juNqtXrdunW5ubkXLlyQy+WTk5NVVVWQROHmzp07zc3N4r/FllFGRsaaNWtgeOGrEwqFzp8/73a7lUrl6tWrt2zZ4nK5IiIi/H7/hQsXduzYISaR2+22WCw8z+fl5ZEkKQiCIAjiLDCJRCJOjunv74+Pj599ZvEZKisrxS/FFzQ9Pb2wsFAuly/9BRqyJGIYZmBg4MqVK1KpdP/+/TqdTiKRrFu3bv369bdv366urnY4HFqtFnqLwsfmzZsPHjwo/ttsNtfU1JjN5n/7t3/r6+v75//9zwY95NEi4zjObrefPXvW5XLt3LnzscceE2Nl586d586du3z58sjISGpqqlQqdblcbrc7Pz+/vr7eYrGwLNvW1iaVSn//+99LJBKtVpufn2+xWFwu1+x1dERERFlZ2caNG2UyGcMwg4ODt27dunfv3g9+8IOenp7vfve7S7zqMbIkslgs7e3tXq+XIIjm5uYf/vCHSqXSYrGYzWaO42ZmZmpra+f1yQGECIJYvXr1Cy+8IH4ZDAY3btx49OjRxsbGrq6uzo7OHTt2oK1w5fF4PPX19Q6Hg+O4vr6+X/7ylx988IHT6ezq6sIwzO/3NzU1PfbYY8nJyWKLRiaTYXMmTBMEQRCEOBteJpPNmygvl8u3bNly6NChiIgIQRACgUBlZeWbb745NjZ24sSJ5/7iOZ1eh2NL1zJClkS9vb23b98W25D9/f0WiwXHcZZlxbm8Ho/nj3/8Y0lJCSRRmMBxPCIiIi4ubvYIx3Hnz5+/deuW3W7v7e2FJFp04mAWwzAYho2Njc3MzIij+KFQSHxAbW1tSUlJcnJyRERERERES0vL/v37k5KSBEFobGxUKBTbtm0Tg6mioiIqKkqpVIrPhmEYQRBardZoNIpjZxiG5ebmZmRkjI+PDw4OzkzPMKnMUu4ygCaJ/H7/3bt329vbIyIicnNz12aunZ2jNTU11dnROTw8fPXq1fHx8bmjAwAhQRBCdMjlcolfhkKhu3fvihOvcRyH12jR0TRttVqvXr3KcVx2dnZmVqZWqxW/FQwEOzs7Ozs7W1pa+vr68vLyNBqNwWhwOBxerzclJYWiKDF3TCaTOHm4o6Pj+eefj4qKstls4pOI7SC32y22lbxe78DAgPiCird/PhJzrEdGRrq7u202W1JS0osvvrizbOfsn/JA/8AHH3zw7rvvjo6ONjU1xcXFzR16BKgIgtBzr+fY746JXwb8gYaGhrt378rl8pSUlIfd3Ao8kN1ub2trM5vNGIY9/fTTz+x/JjY2VvyW2+X+5JNPBgYGpqamOjs7i4qKMjIykpOSc3NzP/744+3bt5tMppSUFIVC4fF4hkeGGxoaYmJi0tPTVSrVbBIFg8GGhgaWY2UymcALTqezsbHx3r17FEUVFRUZDIYl/nRBk0Stra1dXV0kSRqNxt27dyclJc32TGvUmsHBwePHj7MsW1lZuXXrVkiicCAIQn19fX19vfil2PWg0Wjy8/N37dqVm5uLtryVx2Kx1NXV4TiuUChKS0tzsnNmJz2HQqHdu3f/+te/9ng8TU1NJSUlq1atio2NPXDgwJtvvikIwsTEhE6noyjq1q1b3d3dXV1d3//+941G49xmjtfr/eijjz766CPxS5IkZTKZTqdLTU39u7/7u6XfpA9BEvECPzA4MD09nZ6enp+fn5KSMve7UVFRmZmZa9eutdls7e3tTqdTEASYxYuQ2Jswb+4iSZKJiYmFhYVPPfXUli1boDtvcQmCMDU1de/evYSEhFWrVmVkZMy990Imk61duzY7O1sikYyOjorTTcVX5MiRI2fOnDl//rx40BhrLCos+sUvfjF7twdJkhqNZm5/n0ipVCYnJ2/ZsuXZZ5/Nz89f+jFrfN66M0uDYRhxhRSCIO7vFeN5nqZpMYCkUunyHcgXd14sKipCXcifRXyx7v87EUdn/py1csIBwzDl5eWlpaXhtvMix3EMw4iLdkml0vs/jEOhkHibK0VRcz8nZlf7wv7fazT3u+K9aSzL3v8bxbE2VEsUobk6oyjqC65CCYKAJW/Cxxe/WOAr8sCIF8fsH/YHxeGFMHxBl2tzAwCwkkASAQDQgyQCAKAHSQQAQA+SCACAHiQRAAA9SCIAAHqQRAAA9BaYY33jxg0kpaw8brebpmlYkDuc8Tw/NjZmMBiWcgWMR8HD3lqwwBzrqKioRSrmUSeuBQPnM5xxHDc+Pq5Wq5d4Ux0wzwJJlJmZufR1rFQOhwPOZzhjGKavr89kMoXbfWePGugnAgCgB0kEAEAPkggAgB4kEQAAPUgiAAB6kEQAAPQgiQAA6CHbeXGWIAgej8fr9QqCoFQqVSpVGC5tCTAMo2na6/X6fD6SJLVarUKhWL5LjK9gXq/X4/HwPK9QKFQq1XKZO444iYLB4PDwcEdHh9Vq5XneYDCsXr169erVMC85rAiCMGOf6evtu3fv3tTUFEVR4h5nSUlJsKtH+GAYZsQ80tHeYTabGYaJiYnJyMhYu3btstinC2USMQzT29v7T//rn65fuy4uDx4IBLKzs1999dVDhw7N29YGIBQIBMrPl7/zzju9vb0KhYJlWa/X+41vfOM73/nO+vXrl/XeHisGy7JWq/UnP/nJ1bqrGIbhOB4MBlNTU1977bVvfetb4X+dgbJ1PTw8/Ic//KGmuuYnP/lJfUNDR2fnW2+9hWHY0aNHu7u7ERYG5qmrq/vwww8pKfXee+91dXV1dHS8+uqrFy9ePHfu3Pj4OOrqAIZh2OTk5PHjx8/+8exrr71WU1vb2dn5zjvvxMTEvPXWWx0dHQtuKxRWUCbRyMhIbW3ttm3bDh06lBAfHxUZuXfv3j179kxNTV26dAlhYWCeq1evut3uJ3Y9sXPnTrVaHR0d/dd//dcmk0ncyxd1dQDDMGxycrK8vFzcOtGUlhYZGbl9+/aDBw96PJ7y8nKaplEX+ADIkigYDI6Pj09PT2/bti0mJkYikeA4Hh0d/dhjj+l0ujt37qAqDMzj8XiGh4c1Gk12drZKpRI380tISMjNzXU6nSMjI6gLBBhN05OTk1artaSkxGg0UhSF47hWq83IyEhKSrp16xa0iT6X3+93OBwYhqWnp88OwRAEERUVFRkZOTQ0hKowMI/D4fB4PNpIrdFonD1IkmRSUlIgEJiamkJYGxAFg0G73c4wzKqMVbNdQgRBiDuJ9/X1ibvFhjNkSUTTtD/gJyWkRquZu9OuXC6XyWROpxNVYWAen8/HMIxCrlAoPzNMplarWZb1+/2oCgOzaJr2+XwEQURGRs4dQJBKpUql0uFwQBJ9Lo7nOJbDMVxCfmaMDMdxkiTD/8Q9OliW5XmeIAiS+MwYmfgXf/+an2Dp8QLPsiyOL/xu4jgOVWFfHrIkInCCIAhBEOZdwfI8z3Hc3FYSQIsgCBzHxddl7nGWZSGGwgSBEyRJft67aVlMQEVWIkVRMpmM53mfzzf3D5phGJqmYb5c+FAoFBKJhKbpUCg093ggEMBxfLlM4V3ZSJKUyWSCIPh8vrnXEyzLBgIBhUIR/h/tyJIoIiIiMjIyFAqNjIzMPXdOl9PusCcnJ6MqDMwTExMjl8vtdvv09PTc41arVSqTwqKr4UCpVMbExLAsOzg4KK6eLvJ6vROTE2lpaeHfLEJWn0wmi42NjYqKunTpUiAQEJtFLperr7dveno6Ly8PVWFgHpVKlZKSMjU11dbWNnuBNj4+3tHZEamNTElJQVsewDBMKpXq9fr4+PjKykqXyyW+mzwez8DAgNVi3bx5c/jfsUD+9Kc/RfKLcRxnGMZms1VXV8sVcoVCMT09XVVVde7cOYIgXn311RXQLJqamgoGg8v9P0IQhM/n6+7uHhgYkMlkMpnMbDYfP368prqmtLR07969y7pZxPN8b29vamrqsu4QwHGc4zin01lZWalQKBQKhdPprKurO3PmjMvl+vu///u0tLQwvykHZVImJSUdOHDAbDGfPHmyqbGJJMmxsTGKop577rmcnByEhYF5CgoKLBbLJ5988vbbb6empgaDwf7+/oKCgieffDIhIQF1dQDDMEyv1x88eHBgYODChQsdnR1ymXxycpJl2cOHD+fl5UGb6IvIZDKxSUnTNE3TOI6npKTs3r173759er0eVVWLaGW0iTAM02g0BoNBo9EEg8FgMEhRVG5u7uHDhzdu3KhSqVBX92dZGW0iDMMoitLr9YmJiSzL0iFaEISEhISysrKvf/3rRqMx/HusF9gDdukJgiBOZVQqleJN+StDd3e3w+F42M0wwxlN0y6XSyqVqtXq8O8E/TIYhikvLy8tLV3W15hzCYIgdhUpFAq5XI66nC8rLNpsOI7DgkTLgtgziroK8EVwHI+MjERdxUNbCR9rAIDlDpIIAIAeJBEAAD1IIgAAepBEAAD0IIkAAOgtMIo/MzOz9HWsSH6/PxQKwfkMZwzD8DzvdDrDYWLdSvKwWxstMLPx7Nmzi1fPI01cwSf8N3h5lAmCQNM0RVErY6Jm+Dhw4MBDPX6BJAr/xbeXi3v37jmdzoKCAtSFgM/FMExFRUVJSQnMrV1cD3un2wKPDv+b5ZYLcbVDOJ/hTBAEcYlVeJnQghYpAAA9SCIAAHqQRAAA9CCJAADoQRIBANCDJAIAoAdJBABAD/0cCp7nrVar1WoVBMFgMMTFxS33pZFXNp/PV1tbm5eXp9frYfp4eBIEobOzk2XZjIyM5fJuQplEgiBMTk6ePHWyprrG4/HwPK9QKDZs2HDgwIH8/HyEhYHP4/P5Ghsb/+Vf/uVf//VftVotJFF4MpvNJ06ckMvlr7zyCiTRg01PT1++fPnYsWNpqWlbCwtlUml3d/fVq1cDgUB8fHxcXBzC2sBcLMv6/f7p6enW1tYTJ07cunXL4XDM7sIIwgHP8zRNezweq9V69uzZc+fObdq0ad4G4uEMZRKNjIx8/PHHdIh+7bXXCgoK5HJ5c3Pz0aNHa2pqSkpKnnnmGYS1gbksFsvNmzebm5vb2tpqampQlwMW4Pf729raamtrBwcHL126NDo6umnTJtRFPQRkPdYcx1kslra2tscff7yoqEitVlMUlZ+fX1JSwrJsXV0dqsLA/Ww2W2Nj482bN71eb0ZGBupywAICgUBvb29VVVVvb6/BYFh2N/QiaxP5/X6bzRYKhTZt2jS7T65EIklMTIyPj+/q6kJVGLhf3oa8tZlrWYZ1u911dXXf/va3UVcE5ouJifmL5/9CvJLo7e392Rs/Q13Rw0GWRIFAwO12UxRljDXOXRomIiJCqVT29PSgKgzcT0pJpZQUwzCSJFXq5dED+qghCEKpUCoVSgzDtJFaqVSKuqKHg+zqjGVZmqFxHJdJP7PpK0mSFEXBGkkAPFJQzmzEMRzDsPuXaoN1PAF41CBLInFtKp7n5w00sizLMAxMVAHgkYIsieRyuUqlYlnWZrPxPD973Of3eb1enU6HqjAAwNJDlkRKpVKn05Ek2drayjCMeDAUCo2Pj8/YZ1avXo2qMADA0kM2dkZRVHx8vMlkqqmp6enpMZlMBEGMjIw032kOBoKFhYWoCr159AAAAAqQSURBVAMALD2UPdYmk+npp58eHRt98803L1y4cOnSpaNHj1ZVVa1atWrXrl0ICwMALDGUd3vExcUdOnTI7/e/9dZblZWVgiBoNJo9e/a8/vrr8fHxCAsDACyxBfY7W0osyzocDpvNZrPZMAzTarUGg0Gn08nlcoRVLZbu7m6Hw1FUVIS6kEXDcZzX6x0ZGUlJSVGpVLOT45cvhmHKy8tLS0ujo6NR17JoQqHQxMQEQRAGg0Emkz34B8IA4vWJJBKJXq/X6/WrVq0Sv1wBf9wrGEmSWq02NzcXdSHgi8hkspSUFNRVPBz0K6WJlktyAwC+CrB6LAAAPUgiAAB6kEQAAPQgiQAA6EESAQDQgyQCAKC3wMzGhoYGJKWsPC6Xi6ZpvV6PuhDwucTt9oxGI8wjWVxbt259qMcvMJ9Io9EsUjGPumAwyPM8nM9wxnEcjuPimsWoa3mkLZBEWVlZS1/HioTjuMPhgPMZzhiG6e/vT09PX0l3eyxH0E8EAEAPkggAgB4kEQAAPUgiAAB6kEQAAPQgiQAA6EESAQDQC5eV0jAMs9lsJElqNBrYdjE80TTt9XoDgQBBEBqNRqFQEAR8koWpmZkZnucjIyOXy7spXJLI6/VWVVVFRUUVFhZGRUWhLgd8hiAIdoe9v6+/p6fHZrNRFJWampqVlZWQkKBQKFBXB+bz+Xx1dXU8z5eWli6XTUwRJ5EgCDzPMwxz+/bt//qv/9q4cWNWVhYkUbgJBoPl5eX//Zv/vnv3rlyhYBnG7/e/8MIL3/nOd9avXw8tozAhvptYlm1paXnnnXd0Ot369eshiR6MZVmPxzM+Pt7Y2Pjv//7vvb29GzduRFgP+Dx1dXUffvAhRVG//e1vS7dvZ2j65z//+enTp41Go8FgSExMRF0gwDiO8/l8ExMTTU1NR44caWlpOXToEOqiHgLKJBodHT116tR7773n8/mmpqZomkZYDPgC165dc7lce/fuLSsrU6lUgiC8/vrrTU1Nra2t3d3dkEThYHp6+qOPPvrVr37l9Xqnp6eX3bsJZRJFRUdt37HdaDRiGGaxWE6cOIGwGPB5PB7P0NCQRqPJyclRq9UYhuE4npSUlJOT09LSMjw8jLpAgGEYplari4qK1Gq1IAhjY2NnzpxBXdHDQZlEapV6Xe66rMwsDMM6OzurqqoQFgM+j9PpdLvdWq3WGGucPUiSZFJSUn19/dTUFMLawCyFQpGZmbl69WoMw+713Gu4ucxWGUOZRDiOUxQljjLK5DKChI7PcOT1ehmGUSgU81bw0Wg0LMv6/X5UhYG55r6b5HL5stvBFN784AFYluV5niAIkvjMH7f4t452N3OwYkASgQcgCALHcZ7nOY6be5zjOIghsFggicADyOVyiURC03QoFJp73O/34zgulUpRFQZWEkgi8AAxMTFyudxut09PT889bh21SmVSWHQVLApIIvAAarU6JSVlenq6vb199gJtYmKis6MzUhuZnJyMtjywMoTLfWcgbJEkWVRU1NHRcfnK5bS0tA0bNvh8vrNnz/b29h44cAD2CwCLApIIPNjWrVvNZvOnFZ8ePXo0LS0tGAz29vZu3rz5ySefhAnWYFGESxJFR0Xv3r07MSFRpVKhrgXMl5CQsH//fo1G09DQ4PV6SZIsLS196qmnNmzYAPfih6FIbeSO7TtkMpk4J35ZWGAPWLBYuru7HQ5HUVER6kIWDU3TLpdLKpWq1eqVcQs+wzDl5eWlpaXQ9Y5WuLSJwLIglUphc23wVVgJH2sAgOUOkggAgB4kEQAAPUgiAAB6kEQAAPQgiQAA6C0wim+325e+jhUpEAjQNA3nM5yJqy+5XC7Uhaw0Dzs/a4GZjX/84x8Xr55HGsdxPM8vl63vHk2CINA0TVHUypioGT6effbZh3r8AknEMMzi1fNI6+npcTgcBQUFqAsBn4thmAsXLhQXF8Mue4vrYT+AF7g6g8/wxUIQBEEQcD7DHI7jEokEXia0oEUKAEAPkggAgB4kEQAAPUgiAAB6kEQAAPQgiQAA6EESAQDQC5c1GwVBaGlpkclkaWlp8/ZfB2HF7/fX1tbm5eXpdDqYgxOGRkdHR0dHGYaJiYmJj4/XaDSoK/pSwiWJhoaGjh07ZjKZnn/+eUiisOXz+Zqamt54440333xTo9FAEoUPQRDcHvfJkydra2pnZmY4jpPL5ZmZmQcPHtyyZQvq6h4MZRLxPB8Khdxut9VqPXXqVHl5+b59++ZteQzCAcuyfr9/Zmamra3txIkT9fX1drt9dhdGEA7cbnddXd3Ro0cTExJz162LUCoHBgbq6+tdLldiYmJcXFyY31iHMoncbndbW9v169cHBgY+/fTTeZsdg/BhtVpv3brV0tLS2tp65coV1OWABUxOTp46dWpmeubHP/rxjp07NRpNZ0fHe++9V1lZuXPnzv3790ulUtQ1fhGUMen1ejs6OioqKnp6euLi4pbR3kyPmomJiYaGhmvXrjkcjvT0dNTlgPl4np+cnLxx40ZJSUlxcXFMdDQlkeTk5OzatYuiqKqqKpqmUdf4ACjbRHFxcS+9/NI3vvENDMO6u7t//OMfIywGfIEN+RsyMzMZhvF4PLW1tS+99BLqisBnBINBm83mcrkKCgrkcrl4UCKRGI3G9PT01tbW8L+URplEJElGKCMilBEYhmkjtRJJuHSfg3mklFRKSTEMk0gkKjVs0ht2gsGg0+kkSTI2Lnbu+0ihUGi12tu3b4d/EoVTJxaOugDwJeA4vE5hh+M4mqZxHJfL5HNfIJIkpVIpy7IIa/uSwimJAAB/BkEQ7l/4cMGDYQiSCIBlb3ZBvmAwODd3xLZSmI+aiSCJAFj2ZDKZWq3mOM5ms829FgsEA06nU6/Xh/lkIgySCIAVQC6X63Q6hULR3NwcCATEZhHDMDabbWxsLDMzkyRJ1DU+AAxXAbDsSSQSg8GQlZVVXV197949mUxGUdTo6Oidpjt2u72kpCT878uBJAJgJYiPj3/++ee/973v/eL//OLZA89GRUVdv379woULiYmJ+/btC/+uIkgiAFaC6Ojo/fv3u1yuX/3qV3W1dYIgKJXKbdu2fe9730tMTAz/fqIF9jtDIhAIWEetCrnCYDCEf35/Sd3d3Q6Ho6ioCHUhi4bjOI/HMzQ0ZDKZVCpV+Pc+PBDDMOXl5aWlpQ+7Z2kY4nnebrdPTExMTU1xHKdWq41Go8FgWBaLW4RLm0ihUGSsykBdBXgAkiQjIyPz8vJQFwIWQBCETqfT6XShUEgQBIqiltFHRbgkEQBgschkMtQlPLRwv3oEADwKIIkAAOhBEgEA0IMkAgCgB0kEAEAPkggAgN4CMxtv3ryJpJSVx+l00jRtMBhQFwI+F8/zFoslNjZ2OY58h7OCgoKHevwC84lUKlgedHHAmVwWsrKyUJcAwuZuDwDAowz6iQAA6EESAQDQgyQCAKAHSQQAQA+SCACAHiQRAAA9SCIAAHqQRAAA9CCJAADoQRIBANCDJAIAoAdJBABAD5IIAIAeJBEAAD1IIgAAepBEAAD0IIkAAOhBEgEA0IMkAgCgB0kEAEAPkggAgB4kEQAAPUgiAAB6kEQAAPT+LyWYK9PV5BShAAAAAElFTkSuQmCC;" vertex="1" parent="1">
                    <mxGeometry x="128.84" y="400" width="321.16" height="200" as="geometry"/>
                </mxCell>
            </root>
        </mxGraphModel>
    </diagram>
</mxfile>